#define 3cf22ef7fb2d46268e46c36f765badcaP38QaavIfXlXoweH_width 240
#define 3cf22ef7fb2d46268e46c36f765badcaP38QaavIfXlXoweH_height 240
static char 3cf22ef7fb2d46268e46c36f765badcaP38QaavIfXlXoweH_bits[] = {
  0x00, 0x00, 0x00, 0x00, 0x00, 0x00, 0x00, 0x00, 0x00, 0x00, 0x00, 0x00, 
  0x00, 0x00, 0xE8, 0x1F, 0x00, 0x00, 0x00, 0x00, 0x00, 0x00, 0x00, 0x00, 
  0x00, 0x00, 0x00, 0x00, 0x00, 0x00, 0x00, 0x00, 0x00, 0x00, 0x00, 0x00, 
  0x00, 0x00, 0x00, 0x00, 0x00, 0x00, 0x00, 0x40, 0xC0, 0x1F, 0x81, 0x00, 
  0x00, 0x00, 0x00, 0x00, 0x00, 0x00, 0x00, 0x00, 0x00, 0x00, 0x00, 0x00, 
  0x00, 0x00, 0x00, 0x00, 0x00, 0x00, 0x00, 0x00, 0x00, 0x00, 0x00, 0x00, 
  0x10, 0x26, 0xE0, 0x6F, 0x20, 0x10, 0x00, 0x00, 0x00, 0x00, 0x00, 0x00, 
  0x00, 0x00, 0x00, 0x00, 0x00, 0x00, 0x00, 0x00, 0x00, 0x00, 0x00, 0x00, 
  0x00, 0x00, 0x00, 0x00, 0x00, 0x00, 0x00, 0x00, 0xE4, 0x1F, 0x02, 0x81, 
  0x00, 0x00, 0x00, 0x00, 0x00, 0x00, 0x00, 0x00, 0x00, 0x00, 0x00, 0x00, 
  0x00, 0x00, 0x00, 0x00, 0x00, 0x00, 0x00, 0x00, 0x00, 0x00, 0x00, 0x00, 
  0x22, 0x00, 0xF1, 0x2F, 0x00, 0x08, 0x00, 0x00, 0x00, 0x00, 0x00, 0x00, 
  0x00, 0x00, 0x00, 0x00, 0x00, 0x00, 0x00, 0x00, 0x00, 0x00, 0x00, 0x00, 
  0x00, 0x00, 0x00, 0x00, 0x80, 0x64, 0x08, 0x44, 0xE0, 0x0F, 0x29, 0x00, 
  0x42, 0x01, 0x00, 0x00, 0x00, 0x00, 0x00, 0x00, 0x00, 0x00, 0x00, 0x00, 
  0x00, 0x00, 0x00, 0x00, 0x00, 0x00, 0x00, 0x00, 0x00, 0x00, 0x04, 0x22, 
  0x90, 0x16, 0xE8, 0x5F, 0x80, 0x01, 0x26, 0x00, 0x00, 0x00, 0x00, 0x00, 
  0x00, 0x00, 0x00, 0x00, 0x00, 0x00, 0x00, 0x00, 0x00, 0x00, 0x00, 0x00, 
  0x00, 0x00, 0x00, 0x00, 0x00, 0x00, 0x01, 0x40, 0xE1, 0x0F, 0x24, 0x98, 
  0x00, 0x84, 0x00, 0x00, 0x00, 0x00, 0x00, 0x00, 0x00, 0x00, 0x00, 0x00, 
  0x00, 0x00, 0x00, 0x00, 0x00, 0x00, 0x00, 0x00, 0x00, 0x20, 0x80, 0x00, 
  0x14, 0x49, 0xE2, 0x0F, 0x00, 0x44, 0x82, 0x14, 0x00, 0x00, 0x00, 0x00, 
  0x00, 0x00, 0x00, 0x00, 0x00, 0x00, 0x00, 0x00, 0x00, 0x00, 0x00, 0x00, 
  0x00, 0x00, 0x00, 0x00, 0x09, 0x44, 0x00, 0x00, 0xF8, 0x8F, 0x66, 0x10, 
  0x10, 0x00, 0x04, 0x00, 0x00, 0x00, 0x00, 0x00, 0x00, 0x00, 0x00, 0x00, 
  0x00, 0x00, 0x00, 0x00, 0x00, 0x00, 0x00, 0x00, 0x00, 0x98, 0x10, 0x66, 
  0x08, 0x90, 0xE0, 0x0F, 0x44, 0x01, 0x06, 0x08, 0x02, 0x00, 0x00, 0x00, 
  0x00, 0x00, 0x00, 0x00, 0x00, 0x00, 0x00, 0x00, 0x00, 0x00, 0x00, 0x00, 
  0x00, 0x00, 0x00, 0x00, 0x44, 0x00, 0x91, 0x04, 0xF1, 0x2F, 0x00, 0x84, 
  0x20, 0x91, 0x04, 0x00, 0x00, 0x00, 0x00, 0x00, 0x00, 0x00, 0x00, 0x00, 
  0x00, 0x00, 0x00, 0x00, 0x00, 0x00, 0x00, 0x00, 0x90, 0x41, 0x00, 0x40, 
  0x08, 0x21, 0xF4, 0x07, 0x00, 0x20, 0x44, 0x08, 0x80, 0x02, 0x00, 0x00, 
  0x00, 0x00, 0x00, 0x00, 0x00, 0x00, 0x00, 0x00, 0x00, 0x00, 0x00, 0x00, 
  0x00, 0x00, 0x00, 0x08, 0x2A, 0x02, 0x00, 0x80, 0xF0, 0x5F, 0x44, 0x05, 
  0x11, 0x00, 0x12, 0x08, 0x00, 0x00, 0x00, 0x00, 0x00, 0x00, 0x00, 0x00, 
  0x00, 0x00, 0x00, 0x00, 0x00, 0x00, 0x00, 0x00, 0x00, 0x80, 0x80, 0xA6, 
  0x01, 0x08, 0xF0, 0x07, 0x16, 0x10, 0x04, 0x01, 0x06, 0x10, 0x00, 0x00, 
  0x00, 0x00, 0x00, 0x00, 0x00, 0x00, 0x00, 0x00, 0x00, 0x00, 0x00, 0x00, 
  0x00, 0x00, 0x22, 0x11, 0x24, 0x00, 0x98, 0x22, 0xF9, 0x27, 0x40, 0x82, 
  0x40, 0x98, 0x20, 0x01, 0x00, 0x00, 0x00, 0x00, 0x00, 0x00, 0x00, 0x00, 
  0x00, 0x00, 0x00, 0x00, 0x00, 0x00, 0x00, 0x00, 0x02, 0x22, 0x02, 0x22, 
  0x21, 0x00, 0xF4, 0x27, 0x80, 0x24, 0x02, 0x00, 0x24, 0x00, 0x04, 0x00, 
  0x00, 0x00, 0x00, 0x00, 0x00, 0x00, 0x00, 0x00, 0x00, 0x00, 0x00, 0x00, 
  0x00, 0x20, 0x58, 0x80, 0x68, 0x80, 0x88, 0x22, 0xF8, 0x07, 0x09, 0x00, 
  0x20, 0x44, 0x01, 0x64, 0x01, 0x00, 0x00, 0x00, 0x00, 0x00, 0x00, 0x00, 
  0x00, 0x00, 0x00, 0x00, 0x00, 0x00, 0x00, 0x68, 0x02, 0x09, 0x02, 0x09, 
  0x00, 0x68, 0xF8, 0x57, 0x10, 0x00, 0x88, 0x66, 0x54, 0x46, 0x04, 0x00, 
  0x00, 0x00, 0x00, 0x00, 0x00, 0x00, 0x00, 0x00, 0x00, 0x00, 0x00, 0x00, 
  0x80, 0x00, 0x20, 0x20, 0x20, 0x20, 0x11, 0x02, 0xF8, 0x03, 0x44, 0x99, 
  0x22, 0x00, 0x00, 0x00, 0x00, 0x00, 0x00, 0x00, 0x00, 0x00, 0x00, 0x00, 
  0x00, 0x00, 0x00, 0x00, 0x00, 0x00, 0x00, 0x02, 0x00, 0x82, 0x00, 0x82, 
  0x04, 0x02, 0xF9, 0x23, 0x00, 0x08, 0x04, 0x40, 0x22, 0x00, 0x98, 0x00, 
  0x00, 0x00, 0x00, 0x00, 0x00, 0x00, 0x00, 0x00, 0x00, 0x00, 0x00, 0x00, 
  0x20, 0x60, 0x62, 0x10, 0x62, 0x10, 0x90, 0x40, 0xF8, 0x03, 0x29, 0x00, 
  0xA0, 0x02, 0x08, 0x44, 0x01, 0x01, 0x00, 0x00, 0x00, 0x00, 0x00, 0x00, 
  0x00, 0x00, 0x00, 0x00, 0x00, 0x00, 0x00, 0x45, 0x26, 0x01, 0x26, 0x01, 
  0x00, 0x69, 0xFC, 0x9B, 0x80, 0x01, 0x08, 0xA6, 0x90, 0x16, 0x00, 0x00, 
  0x00, 0x00, 0x00, 0x00, 0x00, 0x00, 0x00, 0x00, 0x00, 0x00, 0x00, 0x00, 
  0x40, 0x00, 0x00, 0x88, 0x00, 0x88, 0x49, 0x00, 0xFD, 0x01, 0x24, 0x98, 
  0x41, 0x00, 0x01, 0x40, 0x88, 0x02, 0x00, 0x00, 0x00, 0x00, 0x00, 0x00, 
  0x00, 0x00, 0x00, 0x00, 0x00, 0x00, 0x90, 0x04, 0x02, 0x14, 0x82, 0x14, 
  0x90, 0x04, 0xFE, 0x45, 0x00, 0x44, 0x48, 0x24, 0x14, 0x49, 0x41, 0x00, 
  0x00, 0x00, 0x00, 0x00, 0x00, 0x00, 0x00, 0x00, 0x00, 0x00, 0x00, 0x00, 
  0x00, 0x60, 0x90, 0x00, 0x10, 0x00, 0x00, 0x60, 0xFC, 0x03, 0x66, 0x10, 
  0x00, 0x80, 0x00, 0x00, 0x08, 0xA6, 0x00, 0x00, 0x00, 0x00, 0x00, 0x00, 
  0x00, 0x00, 0x00, 0x00, 0x00, 0x00, 0x08, 0x2A, 0x06, 0x08, 0x06, 0x08, 
  0x00, 0x2A, 0xFE, 0x81, 0x44, 0x01, 0x01, 0x09, 0x08, 0x90, 0xA0, 0x02, 
  0x00, 0x00, 0x00, 0x00, 0x00, 0x00, 0x00, 0x00, 0x00, 0x00, 0x00, 0x40, 
  0x41, 0x00, 0x20, 0x11, 0x20, 0x91, 0x49, 0x00, 0xFE, 0x14, 0x00, 0x84, 
  0x98, 0x20, 0x91, 0x04, 0x04, 0x40, 0x00, 0x00, 0x00, 0x00, 0x00, 0x00, 
  0x00, 0x00, 0x00, 0x00, 0x00, 0x40, 0x14, 0x44, 0x44, 0x88, 0x44, 0x08, 
  0x94, 0x44, 0xFE, 0x41, 0x00, 0x20, 0x88, 0x82, 0x08, 0x21, 0x22, 0x00, 
  0x08, 0x00, 0x00, 0x00, 0x00, 0x00, 0x00, 0x00, 0x00, 0x00, 0x00, 0x00, 
  0x80, 0x00, 0x11, 0x00, 0x11, 0x00, 0x01, 0x00, 0xFE, 0x08, 0x44, 0x09, 
  0x01, 0x10, 0x00, 0x80, 0x88, 0x66, 0x01, 0x00, 0x00, 0x00, 0x00, 0x00, 
  0x00, 0x00, 0x00, 0x00, 0x00, 0x90, 0x01, 0x1A, 0x04, 0x01, 0x04, 0x01, 
  0x00, 0x19, 0xFF, 0x80, 0x16, 0x00, 0x00, 0x01, 0x01, 0x08, 0x00, 0x42, 
  0x00, 0x00, 0x00, 0x00, 0x00, 0x00, 0x00, 0x00, 0x00, 0x00, 0x00, 0x04, 
  0x44, 0x40, 0x40, 0x98, 0x40, 0x98, 0x48, 0x00, 0xFF, 0x12, 0x40, 0x92, 
  0x88, 0x88, 0x98, 0x22, 0x22, 0x00, 0x08, 0x00, 0x00, 0x00, 0x00, 0x00, 
  0x00, 0x00, 0x00, 0x00, 0x00, 0x00, 0x89, 0x28, 0x00, 0x00, 0x00, 0x00, 
  0x02, 0x24, 0xFF, 0x88, 0x40, 0x14, 0x11, 0x11, 0x00, 0x00, 0x00, 0x00, 
  0x41, 0x00, 0x00, 0x00, 0x00, 0x00, 0x00, 0x00, 0x00, 0x00, 0x00, 0x26, 
  0x00, 0x00, 0x22, 0x44, 0x22, 0x44, 0x58, 0x00, 0x7F, 0x00, 0x09, 0x00, 
  0x80, 0x00, 0x22, 0x44, 0x22, 0x44, 0x08, 0x02, 0x00, 0x00, 0x00, 0x00, 
  0x00, 0x00, 0x00, 0x00, 0x10, 0x62, 0x10, 0x10, 0x88, 0x16, 0xA8, 0x15, 
  0x00, 0xAA, 0x7F, 0x01, 0x10, 0x08, 0x08, 0x00, 0xA8, 0x15, 0x68, 0x11, 
  0xA0, 0x02, 0x00, 0x00, 0x00, 0x00, 0x00, 0x00, 0x00, 0x00, 0x80, 0x00, 
  0x82, 0x88, 0x22, 0x40, 0x02, 0x40, 0x22, 0x80, 0xBF, 0x98, 0x44, 0x11, 
  0x41, 0x91, 0x02, 0x40, 0x02, 0x44, 0x04, 0x00, 0x00, 0x00, 0x00, 0x00, 
  0x00, 0x00, 0x00, 0x00, 0x10, 0x00, 0x28, 0x11, 0x02, 0x40, 0x02, 0x40, 
  0x00, 0x84, 0x3F, 0x88, 0x00, 0x88, 0x04, 0x29, 0x02, 0x40, 0x02, 0x40, 
  0x21, 0x02, 0x00, 0x00, 0x00, 0x00, 0x00, 0x00, 0x00, 0x00, 0x00, 0x22, 
  0x01, 0x00, 0x60, 0x06, 0x60, 0x06, 0x54, 0xD0, 0x3F, 0x01, 0x2A, 0x00, 
  0x90, 0x80, 0x60, 0x06, 0x60, 0x06, 0x80, 0x08, 0x00, 0x00, 0x00, 0x00, 
  0x00, 0x00, 0x00, 0x00, 0x88, 0x68, 0x80, 0x88, 0x49, 0x92, 0x49, 0x92, 
  0x06, 0xC9, 0x1F, 0x00, 0xA0, 0x01, 0x01, 0x00, 0x49, 0x92, 0x49, 0x92, 
  0x08, 0x00, 0x00, 0x00, 0x00, 0x00, 0x00, 0x00, 0x00, 0x00, 0x20, 0x02, 
  0x22, 0x21, 0x00, 0x00, 0x00, 0x00, 0x20, 0xC0, 0xBF, 0x88, 0x04, 0x98, 
  0x44, 0x12, 0x00, 0x00, 0x00, 0x00, 0x22, 0x11, 0x00, 0x00, 0x00, 0x00, 
  0x00, 0x00, 0x00, 0x00, 0x98, 0x44, 0x40, 0x40, 0x48, 0x22, 0x48, 0x12, 
  0x00, 0xC4, 0x1F, 0x11, 0x00, 0x44, 0x00, 0x82, 0x44, 0x12, 0x44, 0x12, 
  0x44, 0x88, 0x00, 0x00, 0x00, 0x00, 0x00, 0x00, 0x00, 0x00, 0x01, 0x01, 
  0x1A, 0x04, 0x00, 0x00, 0x00, 0x00, 0x92, 0xE0, 0x5F, 0x80, 0x64, 0x11, 
  0x65, 0x10, 0x00, 0x00, 0x01, 0x00, 0x10, 0x00, 0x01, 0x00, 0x00, 0x00, 
  0x00, 0x00, 0x00, 0x40, 0x00, 0x90, 0x00, 0x11, 0x81, 0x81, 0x81, 0x81, 
  0x06, 0xF9, 0x4F, 0x08, 0x46, 0x00, 0x40, 0x06, 0x81, 0x81, 0x80, 0x80, 
  0x01, 0x01, 0x00, 0x00, 0x00, 0x00, 0x00, 0x00, 0x00, 0x00, 0x08, 0x04, 
  0x44, 0x44, 0x14, 0x28, 0x14, 0x28, 0x40, 0xE0, 0x1F, 0x42, 0x00, 0x88, 
  0x02, 0x20, 0x14, 0x28, 0x14, 0x29, 0x44, 0x88, 0x04, 0x00, 0x00, 0x00, 
  0x00, 0x00, 0x00, 0x00, 0x91, 0x41, 0x00, 0x40, 0x49, 0x92, 0x49, 0x92, 
  0x40, 0xF4, 0x4F, 0x00, 0x04, 0x20, 0x00, 0x44, 0x49, 0x92, 0x49, 0x92, 
  0x20, 0x98, 0x04, 0x00, 0x00, 0x00, 0x00, 0x00, 0x00, 0x40, 0x08, 0x08, 
  0x46, 0x06, 0x00, 0x00, 0x00, 0x00, 0x16, 0xF0, 0x0F, 0x94, 0x40, 0x09, 
  0x6A, 0x11, 0x00, 0x00, 0x00, 0x00, 0x05, 0x01, 0x00, 0x00, 0x00, 0x00, 
  0x00, 0x00, 0x00, 0x60, 0x00, 0x80, 0x64, 0x92, 0x00, 0x00, 0x00, 0x00, 
  0x44, 0xF1, 0x67, 0x01, 0x1A, 0x00, 0x22, 0x04, 0x00, 0x00, 0x00, 0x00, 
  0x10, 0x00, 0x09, 0x00, 0x00, 0x00, 0x00, 0x00, 0x00, 0x02, 0x14, 0x11, 
  0x00, 0x00, 0x90, 0x89, 0x90, 0x09, 0x00, 0xF4, 0x07, 0x24, 0x40, 0x92, 
  0x00, 0x40, 0x90, 0x09, 0x91, 0x09, 0x82, 0x88, 0x00, 0x00, 0x00, 0x00, 
  0x00, 0x00, 0x00, 0x24, 0x02, 0x12, 0x02, 0x12, 0x49, 0x02, 0x40, 0x94, 
  0x00, 0xF2, 0x07, 0x24, 0x40, 0x14, 0x00, 0x00, 0x29, 0x02, 0x40, 0x92, 
  0x00, 0x24, 0x00, 0x00, 0x00, 0x00, 0x00, 0x00, 0x00, 0x80, 0x90, 0x00, 
  0x90, 0x00, 0x00, 0x58, 0x1A, 0x00, 0x22, 0xF8, 0x67, 0x01, 0x19, 0x00, 
  0x22, 0x44, 0x00, 0x58, 0x1A, 0x00, 0x66, 0x80, 0x26, 0x00, 0x00, 0x00, 
  0x00, 0x00, 0x00, 0x2A, 0x08, 0x80, 0x08, 0x80, 0x90, 0x00, 0x00, 0x09, 
  0x68, 0xFC, 0x43, 0x54, 0x00, 0x08, 0x88, 0x16, 0x90, 0x00, 0x00, 0x09, 
  0x22, 0x29, 0x62, 0x00, 0x00, 0x00, 0x00, 0x00, 0x00, 0x00, 0x22, 0x29, 
  0x22, 0x29, 0x04, 0x22, 0x44, 0x10, 0x02, 0xFA, 0x03, 0x00, 0x44, 0x11, 
  0x22, 0x40, 0x08, 0x22, 0x44, 0x20, 0x00, 0x00, 0x00, 0x00, 0x00, 0x00, 
  0x00, 0x00, 0x00, 0x44, 0x00, 0x91, 0x00, 0x92, 0x11, 0x00, 0x00, 0x88, 
  0x02, 0xFA, 0x03, 0x22, 0x00, 0x88, 0x02, 0x40, 0x11, 0x00, 0x00, 0x88, 
  0x00, 0x44, 0x20, 0x00, 0x00, 0x00, 0x00, 0x00, 0x00, 0x10, 0x54, 0x00, 
  0x54, 0x00, 0x00, 0x64, 0x26, 0x00, 0x60, 0xFC, 0x67, 0x08, 0x2A, 0x00, 
  0x60, 0x06, 0x00, 0x64, 0x46, 0x00, 0x22, 0x10, 0x02, 0x04, 0x00, 0x00, 
  0x00, 0x00, 0x60, 0x09, 0x05, 0x00, 0x06, 0x00, 0x88, 0x26, 0x64, 0x11, 
  0x49, 0xFC, 0x23, 0x90, 0x60, 0x01, 0x49, 0x92, 0x88, 0x06, 0x64, 0x11, 
  0x68, 0x09, 0x68, 0x01, 0x00, 0x00, 0x00, 0x00, 0x00, 0x80, 0x20, 0x09, 
  0x20, 0x09, 0x21, 0x00, 0x00, 0x84, 0x00, 0xFC, 0x01, 0x01, 0x04, 0x98, 
  0x00, 0x00, 0x21, 0x20, 0x00, 0x84, 0x02, 0x80, 0x02, 0x00, 0x00, 0x00, 
  0x00, 0x00, 0x90, 0x28, 0x00, 0x92, 0x00, 0x92, 0x11, 0x20, 0x04, 0x84, 
  0x44, 0xFC, 0x45, 0x48, 0x00, 0x84, 0x48, 0x22, 0x21, 0x20, 0x04, 0x88, 
  0x82, 0x24, 0x92, 0x08, 0x00, 0x00, 0x00, 0x00, 0x00, 0x00, 0xA6, 0x00, 
  0xA6, 0x00, 0x88, 0x06, 0x60, 0x11, 0x01, 0xFD, 0x11, 0x00, 0x64, 0x11, 
  0x00, 0x80, 0x88, 0x06, 0x60, 0x11, 0x10, 0x00, 0x00, 0x00, 0x00, 0x00, 
  0x00, 0x00, 0x00, 0x10, 0x02, 0x09, 0x02, 0x09, 0x00, 0x54, 0x2A, 0x00, 
  0x80, 0xFC, 0x01, 0x01, 0x46, 0x00, 0x01, 0x01, 0x00, 0x54, 0x2A, 0x00, 
  0x05, 0x00, 0x09, 0x10, 0x00, 0x00, 0x00, 0x00, 0x24, 0x89, 0x40, 0x20, 
  0x40, 0x20, 0x11, 0x00, 0x00, 0x88, 0x14, 0xFC, 0x87, 0x94, 0x00, 0x88, 
  0x94, 0x28, 0x11, 0x00, 0x00, 0x88, 0x20, 0x99, 0x20, 0x08, 0x00, 0x00, 
  0x00, 0x00, 0x84, 0x10, 0x00, 0x88, 0x40, 0x88, 0x88, 0x22, 0x44, 0x11, 
  0x41, 0xFD, 0x25, 0x88, 0x04, 0x20, 0x49, 0x92, 0x88, 0x22, 0x44, 0x11, 
  0x84, 0x10, 0x84, 0x11, 0x00, 0x00, 0x00, 0x00, 0x01, 0x00, 0x56, 0x00, 
  0x16, 0x00, 0x10, 0x00, 0x00, 0x08, 0x08, 0xFC, 0x01, 0x01, 0x40, 0x09, 
  0x00, 0x00, 0x10, 0x00, 0x00, 0x08, 0x01, 0x00, 0x00, 0x00, 0x00, 0x00, 
  0x00, 0x00, 0x10, 0x80, 0x44, 0x11, 0x44, 0x11, 0x00, 0x98, 0x1A, 0x00, 
  0x00, 0xFC, 0x09, 0x00, 0x1A, 0x00, 0x00, 0x00, 0x00, 0x58, 0x19, 0x00, 
  0x10, 0x80, 0x11, 0x80, 0x00, 0x00, 0x00, 0x00, 0x44, 0x19, 0x00, 0x44, 
  0x00, 0x44, 0x28, 0x02, 0x40, 0x14, 0x91, 0xFC, 0x93, 0x88, 0x40, 0x92, 
  0x90, 0x89, 0x28, 0x02, 0x40, 0x14, 0x44, 0x19, 0x44, 0x19, 0x00, 0x00, 
  0x00, 0x00, 0x44, 0x19, 0x98, 0x22, 0x98, 0x22, 0x49, 0x02, 0x12, 0x00, 
  0x00, 0xF8, 0x23, 0x02, 0x22, 0x00, 0x20, 0x00, 0x82, 0x48, 0x40, 0x92, 
  0x98, 0x22, 0x98, 0x22, 0x00, 0x00, 0x00, 0x00, 0x11, 0x80, 0x01, 0x88, 
  0x01, 0x88, 0x00, 0x58, 0x00, 0x49, 0x26, 0xFD, 0x07, 0x58, 0x80, 0x65, 
  0x06, 0x64, 0x10, 0x00, 0x1A, 0x00, 0x01, 0x08, 0x01, 0x08, 0x00, 0x00, 
  0x00, 0x80, 0x00, 0x00, 0x00, 0x00, 0x00, 0x00, 0x90, 0x02, 0x80, 0x60, 
  0x64, 0xF8, 0x13, 0x00, 0x01, 0x40, 0x54, 0x46, 0x06, 0x01, 0x40, 0x09, 
  0x00, 0x80, 0x00, 0x80, 0x00, 0x00, 0x00, 0x00, 0x88, 0x11, 0x88, 0x11, 
  0x08, 0x21, 0x04, 0x20, 0x29, 0x02, 0x00, 0xF8, 0x87, 0x22, 0x28, 0x02, 
  0x00, 0x00, 0x20, 0x94, 0x04, 0x20, 0x08, 0x21, 0x08, 0x21, 0x01, 0x00, 
  0x00, 0x00, 0x20, 0x88, 0x11, 0x04, 0x91, 0x04, 0x11, 0x00, 0x92, 0x22, 
  0x22, 0xFA, 0x17, 0x00, 0x82, 0x02, 0x22, 0x04, 0x44, 0x89, 0x00, 0x88, 
  0x91, 0x04, 0x99, 0x04, 0x04, 0x00, 0x00, 0xA0, 0x09, 0x10, 0x08, 0x90, 
  0x08, 0x90, 0x00, 0x62, 0x00, 0x88, 0x00, 0xF0, 0x07, 0x64, 0x10, 0x68, 
  0x08, 0x40, 0x11, 0x00, 0x46, 0x00, 0x08, 0x90, 0x00, 0xA0, 0x00, 0x00, 
  0x00, 0x00, 0x00, 0x00, 0x00, 0x00, 0x00, 0x00, 0x88, 0x26, 0x00, 0x20, 
  0x58, 0xF0, 0x8F, 0x06, 0x01, 0x22, 0x90, 0x16, 0x04, 0x00, 0x64, 0x11, 
  0x00, 0x00, 0x00, 0x08, 0x00, 0x00, 0x00, 0x40, 0x92, 0x28, 0x14, 0x49, 
  0x14, 0x49, 0x21, 0x00, 0x09, 0x02, 0x02, 0xF1, 0x1F, 0x20, 0x88, 0x00, 
  0x02, 0x40, 0x40, 0x88, 0x00, 0x44, 0x24, 0x49, 0x24, 0x41, 0x09, 0x00, 
  0x00, 0x40, 0x02, 0x40, 0x02, 0x40, 0x02, 0x40, 0x19, 0x20, 0x89, 0x00, 
  0x92, 0xE8, 0x1F, 0x20, 0x09, 0x02, 0x14, 0x49, 0x00, 0x11, 0x04, 0x98, 
  0x01, 0x40, 0x01, 0x40, 0x10, 0x00, 0x00, 0x10, 0x68, 0x09, 0x98, 0x1A, 
  0x90, 0x16, 0x80, 0x06, 0x00, 0x22, 0x00, 0xE0, 0x5F, 0x06, 0x00, 0x20, 
  0x00, 0x00, 0x44, 0x80, 0x60, 0x01, 0x90, 0x16, 0x90, 0x16, 0x00, 0x00, 
  0x00, 0x40, 0x02, 0x10, 0x00, 0x40, 0x08, 0x40, 0x00, 0x54, 0x10, 0x68, 
  0x09, 0xE0, 0x5F, 0x64, 0x00, 0x88, 0x08, 0x90, 0x66, 0x08, 0x2A, 0x00, 
  0x08, 0x44, 0x08, 0x44, 0x00, 0x00, 0x00, 0x04, 0x20, 0x44, 0x22, 0x04, 
  0x22, 0x04, 0x11, 0x00, 0x82, 0x02, 0x20, 0xC8, 0x3F, 0x00, 0x92, 0x22, 
  0x11, 0x04, 0x00, 0x41, 0x00, 0x88, 0x22, 0x00, 0x22, 0x00, 0x09, 0x00, 
  0x00, 0x00, 0x00, 0x00, 0x00, 0x00, 0x00, 0x00, 0x88, 0x22, 0x28, 0x02, 
  0x88, 0x91, 0x7F, 0x22, 0x29, 0x02, 0x88, 0x21, 0x40, 0x04, 0x44, 0x11, 
  0x00, 0x00, 0x00, 0x00, 0x02, 0x00, 0x00, 0x2A, 0x62, 0x2A, 0x54, 0x46, 
  0x54, 0x46, 0x10, 0x08, 0x01, 0x40, 0x00, 0x80, 0x7F, 0x00, 0x80, 0x60, 
  0x00, 0x00, 0x02, 0x90, 0x10, 0x08, 0x54, 0x46, 0x94, 0x44, 0x28, 0x00, 
  0x00, 0xA0, 0x26, 0x60, 0x06, 0x64, 0x05, 0x64, 0x00, 0x90, 0x80, 0x65, 
  0x11, 0x88, 0xFF, 0x58, 0x00, 0x49, 0x01, 0x88, 0xA6, 0x01, 0x09, 0x00, 
  0x01, 0x64, 0x01, 0x66, 0x90, 0x00, 0x00, 0x04, 0x00, 0x04, 0x20, 0x00, 
  0x20, 0x00, 0x28, 0x02, 0x22, 0x00, 0x84, 0x21, 0xFF, 0x02, 0x12, 0x00, 
  0x98, 0x22, 0x00, 0x44, 0x40, 0x14, 0x24, 0x00, 0x24, 0x00, 0x01, 0x00, 
  0x00, 0x90, 0x22, 0x00, 0x00, 0x44, 0x12, 0x41, 0x11, 0x00, 0x20, 0x04, 
  0x99, 0x11, 0xFE, 0x25, 0x04, 0x00, 0x99, 0x11, 0x24, 0x11, 0x01, 0x88, 
  0x00, 0x44, 0x11, 0x41, 0x24, 0x01, 0x00, 0x00, 0x80, 0x65, 0xA6, 0x01, 
  0x00, 0x08, 0x80, 0x64, 0x05, 0x60, 0x00, 0x88, 0xFE, 0x01, 0x60, 0x66, 
  0x00, 0x88, 0x01, 0x00, 0x90, 0x01, 0xA6, 0x01, 0x00, 0x08, 0x00, 0x00, 
  0x40, 0x00, 0x01, 0x40, 0x02, 0x80, 0x80, 0xA0, 0x08, 0x46, 0x54, 0x2A, 
  0x00, 0x00, 0xFC, 0x93, 0x2A, 0x42, 0x00, 0x00, 0x54, 0x80, 0x08, 0x10, 
  0x02, 0x90, 0x80, 0xA0, 0x00, 0x00, 0x00, 0x89, 0x28, 0x02, 0x40, 0x14, 
  0x29, 0x04, 0x41, 0x00, 0x00, 0x00, 0x10, 0x11, 0xFD, 0x07, 0x00, 0x00, 
  0x10, 0x11, 0x00, 0x19, 0x42, 0x82, 0x40, 0x04, 0x19, 0x04, 0x99, 0x00, 
  0x00, 0x94, 0x82, 0x02, 0x40, 0x41, 0x91, 0x22, 0x11, 0x04, 0x20, 0x04, 
  0x99, 0x88, 0xF8, 0x47, 0x04, 0x08, 0x99, 0x88, 0x20, 0x01, 0x00, 0x20, 
  0x00, 0x41, 0x11, 0x22, 0x08, 0x00, 0x40, 0x01, 0x10, 0x68, 0x16, 0x08, 
  0x00, 0x88, 0x88, 0x20, 0x04, 0x20, 0x00, 0x10, 0xF8, 0x0F, 0x20, 0x42, 
  0x00, 0x10, 0x04, 0x40, 0x94, 0x09, 0x66, 0x08, 0x80, 0x80, 0x00, 0x00, 
  0x00, 0x00, 0x01, 0x22, 0x44, 0x00, 0x00, 0x20, 0x10, 0x02, 0x85, 0x01, 
  0x02, 0x00, 0xF1, 0x9F, 0x01, 0x28, 0x02, 0x00, 0x86, 0x14, 0x01, 0x80, 
  0x44, 0x80, 0x00, 0x08, 0x00, 0x00, 0x00, 0x48, 0x88, 0x00, 0x00, 0x91, 
  0x11, 0x02, 0x01, 0x10, 0x00, 0x10, 0x20, 0x02, 0xE0, 0x0F, 0x10, 0x00, 
  0x20, 0x02, 0x00, 0x00, 0x24, 0x22, 0x00, 0x11, 0x11, 0x22, 0x99, 0x01, 
  0x00, 0x02, 0x09, 0x02, 0x00, 0x90, 0xA2, 0x00, 0x00, 0x00, 0x00, 0x00, 
  0x00, 0x00, 0x00, 0x00, 0x00, 0x00, 0x00, 0x00, 0x00, 0x00, 0x00, 0x00, 
  0x40, 0x88, 0x88, 0x00, 0x44, 0x00, 0x20, 0x90, 0x00, 0x20, 0x44, 0x00, 
  0x00, 0x00, 0x00, 0x00, 0x00, 0x00, 0x00, 0x00, 0x00, 0x00, 0x00, 0x00, 
  0x00, 0x00, 0x00, 0x00, 0x00, 0xA9, 0x04, 0x00, 0x01, 0x42, 0x10, 0x00, 
  0x40, 0x08, 0x00, 0x88, 0x16, 0x00, 0x29, 0x00, 0x00, 0x00, 0x00, 0x00, 
  0x00, 0x00, 0x00, 0x00, 0x00, 0x00, 0x00, 0x00, 0x00, 0x00, 0x00, 0x00, 
  0x11, 0x00, 0x10, 0x66, 0x01, 0x01, 0x20, 0x22, 0x92, 0x22, 0x40, 0x49, 
  0x00, 0x00, 0x00, 0x00, 0x00, 0x00, 0x00, 0x00, 0x00, 0x00, 0x00, 0x00, 
  0x00, 0x00, 0x00, 0x00, 0x00, 0x40, 0x44, 0x89, 0x42, 0x00, 0x44, 0x08, 
  0x00, 0x00, 0x29, 0x02, 0x40, 0x94, 0x00, 0x00, 0x00, 0x00, 0x00, 0x00, 
  0x00, 0x00, 0x00, 0x00, 0x00, 0x00, 0x00, 0x00, 0x00, 0x00, 0x00, 0x00, 
  0x20, 0x94, 0x00, 0x42, 0x20, 0x08, 0x40, 0x54, 0x80, 0x60, 0x02, 0x00, 
  0x00, 0x00, 0x00, 0x00, 0x00, 0x00, 0x00, 0x00, 0x00, 0x00, 0x00, 0x00, 
  0x00, 0x00, 0x00, 0x00, 0x00, 0x00, 0x06, 0x01, 0x29, 0x00, 0x05, 0x01, 
  0x60, 0x06, 0x00, 0x49, 0x96, 0x01, 0x00, 0x00, 0x00, 0x00, 0x00, 0x00, 
  0x00, 0x00, 0x00, 0x00, 0x00, 0x00, 0x00, 0x00, 0x00, 0x00, 0x00, 0x00, 
  0x12, 0x00, 0x80, 0x66, 0x10, 0x00, 0x00, 0x20, 0x12, 0x00, 0x00, 0x44, 
  0x00, 0x00, 0x00, 0x00, 0x00, 0x00, 0x00, 0x00, 0x00, 0x00, 0x00, 0x00, 
  0x00, 0x00, 0x00, 0x00, 0x00, 0x00, 0x80, 0x48, 0x24, 0x00, 0x82, 0x00, 
  0x90, 0x09, 0x49, 0x02, 0x24, 0x00, 0x00, 0x00, 0x00, 0x00, 0x00, 0x00, 
  0x00, 0x00, 0x00, 0x00, 0x00, 0x00, 0x00, 0x00, 0x00, 0x00, 0x00, 0x00, 
  0x80, 0x80, 0x24, 0x11, 0x04, 0x00, 0x00, 0x00, 0x00, 0x58, 0x80, 0x05, 
  0x00, 0x00, 0x00, 0x00, 0x00, 0x00, 0x00, 0x00, 0x00, 0x00, 0x00, 0x00, 
  0x00, 0x00, 0x00, 0x3E, 0x00, 0x00, 0x00, 0x09, 0x00, 0x80, 0x60, 0x02, 
  0x00, 0x00, 0x90, 0x00, 0x29, 0x02, 0x00, 0x00, 0x00, 0x00, 0x00, 0x00, 
  0x00, 0x00, 0x00, 0x00, 0x00, 0x00, 0x00, 0x00, 0xC0, 0xFF, 0x00, 0x00, 
  0x00, 0x10, 0x00, 0x08, 0x2A, 0x06, 0x40, 0x92, 0x08, 0x22, 0x00, 0x00, 
  0x00, 0x00, 0x00, 0x00, 0x00, 0x00, 0x00, 0x00, 0x00, 0x00, 0x00, 0x00, 
  0x00, 0x00, 0xE0, 0xFF, 0x01, 0x00, 0x80, 0x44, 0x99, 0x41, 0x00, 0x00, 
  0x14, 0x28, 0x11, 0x00, 0x42, 0x00, 0x00, 0x00, 0x00, 0x00, 0x00, 0x00, 
  0x00, 0x00, 0x00, 0x00, 0x00, 0x00, 0x00, 0x00, 0xF0, 0xFF, 0x03, 0x00, 
  0x00, 0x00, 0x08, 0x00, 0x44, 0x00, 0x80, 0x81, 0x00, 0x64, 0x10, 0x00, 
  0x00, 0x00, 0x00, 0x00, 0x00, 0x00, 0x00, 0x00, 0x00, 0x00, 0x00, 0x00, 
  0x00, 0x00, 0xF0, 0xFF, 0x07, 0x00, 0x00, 0x49, 0x00, 0x94, 0x00, 0x16, 
  0x00, 0x00, 0x88, 0x26, 0x01, 0x01, 0x00, 0x00, 0xF0, 0x01, 0x00, 0x00, 
  0x00, 0x00, 0x00, 0x00, 0x00, 0x00, 0x00, 0x00, 0xF8, 0xFF, 0x07, 0x00, 
  0x00, 0x14, 0x01, 0x01, 0x1A, 0x04, 0x44, 0x12, 0x21, 0x00, 0x08, 0x00, 
  0x00, 0x00, 0xFC, 0x03, 0x00, 0x00, 0x00, 0x00, 0x00, 0x00, 0x00, 0x00, 
  0x00, 0x00, 0xF8, 0xFF, 0x07, 0x00, 0x00, 0x40, 0x98, 0x24, 0x40, 0x00, 
  0x00, 0x00, 0x11, 0x20, 0x00, 0x00, 0x00, 0x00, 0xFE, 0x0F, 0x00, 0x00, 
  0x00, 0x00, 0x00, 0x00, 0x00, 0x00, 0x00, 0x00, 0xFC, 0xFF, 0x0F, 0x00, 
  0x00, 0x40, 0x22, 0x02, 0x12, 0x01, 0x40, 0x92, 0x88, 0x06, 0x1A, 0x00, 
  0x00, 0x00, 0xFE, 0x0E, 0x00, 0x00, 0x00, 0x00, 0x00, 0x00, 0x00, 0x00, 
  0x00, 0x00, 0xF8, 0xFF, 0x0F, 0x00, 0x00, 0x00, 0x00, 0x68, 0x00, 0x08, 
  0x68, 0x06, 0x00, 0x54, 0x00, 0x00, 0x00, 0x00, 0xFF, 0x0F, 0x00, 0x00, 
  0x00, 0x00, 0x00, 0x00, 0x00, 0x00, 0x00, 0x00, 0xFC, 0xFF, 0x0F, 0x00, 
  0x00, 0x90, 0x88, 0x22, 0x80, 0x00, 0x00, 0x40, 0x11, 0x00, 0x04, 0x00, 
  0x00, 0x00, 0xFF, 0x1F, 0x00, 0x00, 0x00, 0x00, 0x00, 0x00, 0x00, 0x00, 
  0x00, 0x00, 0xFC, 0xFF, 0x0F, 0x00, 0x00, 0x00, 0x22, 0x00, 0x29, 0x11, 
  0x00, 0x44, 0x88, 0x22, 0x00, 0x00, 0x00, 0x00, 0xFF, 0x1F, 0x00, 0x00, 
  0x00, 0x00, 0x00, 0x00, 0x00, 0x00, 0x00, 0x00, 0xFC, 0xFF, 0x0F, 0x00, 
  0x00, 0x00, 0x04, 0x00, 0x92, 0x24, 0xA8, 0x11, 0x10, 0x00, 0x06, 0x00, 
  0x00, 0x00, 0xFF, 0x1F, 0x00, 0x00, 0x00, 0x00, 0x00, 0x00, 0x00, 0x00, 
  0x00, 0x00, 0xFC, 0xFE, 0x0F, 0x00, 0x00, 0x00, 0xA0, 0x22, 0x00, 0x00, 
  0x22, 0x44, 0x00, 0x58, 0x00, 0x00, 0x00, 0x00, 0xFF, 0x1F, 0x00, 0x00, 
  0x00, 0x00, 0x00, 0x00, 0x00, 0x00, 0x00, 0x00, 0xF8, 0xFF, 0x0F, 0x00, 
  0x00, 0x80, 0x08, 0x66, 0x00, 0x10, 0x00, 0x00, 0x28, 0x02, 0x00, 0x00, 
  0x00, 0x00, 0xFF, 0x1F, 0x00, 0x00, 0x00, 0x00, 0x00, 0x00, 0x00, 0x00, 
  0x00, 0x00, 0xF8, 0xFF, 0x07, 0x00, 0x00, 0x00, 0x41, 0x00, 0x09, 0x09, 
  0x02, 0x00, 0x49, 0x02, 0x02, 0x00, 0x00, 0x00, 0xFF, 0x1F, 0x00, 0x00, 
  0x00, 0x00, 0x00, 0x00, 0x00, 0x00, 0x00, 0x00, 0xF0, 0xFF, 0x07, 0x00, 
  0x00, 0x00, 0x24, 0x11, 0x09, 0x09, 0x20, 0x44, 0x00, 0x58, 0x00, 0x00, 
  0x00, 0x80, 0xFF, 0x1F, 0x00, 0x00, 0x00, 0x00, 0x00, 0x00, 0x00, 0x00, 
  0x00, 0x00, 0xF0, 0xFF, 0x03, 0x00, 0x00, 0x40, 0x00, 0x80, 0x00, 0x10, 
  0x88, 0x16, 0x90, 0x00, 0x00, 0x00, 0x00, 0x00, 0xFF, 0x1F, 0x00, 0x00, 
  0x00, 0x00, 0x00, 0x00, 0x00, 0x00, 0x00, 0x00, 0xE0, 0xFF, 0x01, 0x00, 
  0x00, 0x00, 0x00, 0x08, 0x00, 0x00, 0x20, 0x40, 0x04, 0x22, 0x00, 0x00, 
  0x00, 0x00, 0xFE, 0x1F, 0x00, 0x00, 0x00, 0x00, 0x00, 0x00, 0x00, 0x00, 
  0x80, 0x06, 0xC0, 0xFF, 0x00, 0x70, 0x00, 0x00, 0x99, 0x42, 0x92, 0x48, 
  0x01, 0x40, 0x11, 0x00, 0x00, 0x00, 0x00, 0x80, 0xFF, 0x1F, 0x00, 0x00, 
  0x00, 0x00, 0x00, 0x00, 0x00, 0x00, 0xE0, 0x1F, 0x00, 0x3E, 0x00, 0xFE, 
  0x01, 0x00, 0x08, 0x00, 0x28, 0x11, 0x68, 0x02, 0x00, 0x62, 0x00, 0x00, 
  0x00, 0x00, 0xFF, 0x1F, 0x00, 0x00, 0x00, 0x00, 0x00, 0x00, 0x00, 0x00, 
  0xF0, 0x7F, 0x00, 0x00, 0x80, 0xFF, 0x07, 0x00, 0x00, 0x94, 0x81, 0x00, 
  0x00, 0xA6, 0x88, 0x26, 0x00, 0x00, 0x00, 0x80, 0xFF, 0x1F, 0x00, 0x00, 
  0x00, 0x00, 0x00, 0x00, 0x00, 0x00, 0xFC, 0xFF, 0x00, 0x00, 0x80, 0xFF, 
  0x0F, 0x00, 0x00, 0x01, 0x00, 0x08, 0x44, 0x00, 0x21, 0x00, 0x00, 0x00, 
  0x60, 0x5B, 0xFF, 0xBF, 0x6D, 0x02, 0x00, 0x00, 0x00, 0x00, 0x00, 0x00, 
  0xFC, 0xFF, 0x00, 0x00, 0xC0, 0xFF, 0x0F, 0x00, 0x99, 0x24, 0x12, 0x21, 
  0x02, 0x22, 0x19, 0x20, 0x00, 0x00, 0xFC, 0xFF, 0xFF, 0xFF, 0xFF, 0x07, 
  0x00, 0x00, 0x00, 0x00, 0x00, 0x00, 0xFE, 0xFF, 0x01, 0x00, 0xE0, 0xFF, 
  0x1F, 0x00, 0x22, 0x02, 0x40, 0x00, 0x58, 0x80, 0x80, 0x06, 0x00, 0x00, 
  0xFF, 0xFF, 0xFF, 0xFF, 0xFF, 0x0F, 0x00, 0x00, 0x00, 0x00, 0x00, 0x00, 
  0xFE, 0xFF, 0x01, 0x00, 0xE0, 0xFF, 0x1F, 0x00, 0x08, 0x68, 0x1A, 0x44, 
  0x02, 0x01, 0x00, 0x54, 0x00, 0x80, 0xFF, 0xFF, 0xFF, 0xFF, 0xFF, 0x3F, 
  0x00, 0x00, 0x00, 0x00, 0x00, 0x00, 0xFE, 0xFF, 0x03, 0x00, 0xE0, 0xBF, 
  0x3F, 0x00, 0x80, 0x22, 0x00, 0x15, 0x20, 0x28, 0x11, 0x00, 0x00, 0x80, 
  0xFF, 0xFF, 0xFF, 0xFF, 0xFF, 0x3F, 0x00, 0x00, 0x00, 0x00, 0x00, 0x00, 
  0xFF, 0xFF, 0x03, 0x00, 0xF0, 0xFF, 0x3F, 0x00, 0x22, 0x00, 0x44, 0x00, 
  0x00, 0x82, 0x88, 0x22, 0x00, 0x80, 0xFF, 0xFF, 0xF7, 0xFF, 0xFF, 0x3F, 
  0x00, 0x00, 0x00, 0x00, 0x00, 0x00, 0xFE, 0xFF, 0x03, 0x00, 0xE0, 0xFF, 
  0x3F, 0x00, 0x04, 0x00, 0x00, 0x00, 0x62, 0x10, 0x10, 0x00, 0x00, 0x80, 
  0xFF, 0xFF, 0xFF, 0xEF, 0xFF, 0x3F, 0x00, 0x00, 0x00, 0x00, 0x00, 0x00, 
  0xFF, 0xFB, 0x03, 0x00, 0xF0, 0xFF, 0x3F, 0x00, 0xA0, 0x22, 0x2A, 0x16, 
  0x24, 0x01, 0x00, 0x98, 0x00, 0x80, 0xFF, 0xFF, 0xFF, 0xFF, 0xFF, 0x3F, 
  0x00, 0x00, 0x00, 0x00, 0x00, 0x00, 0xFF, 0xFF, 0x03, 0x00, 0xF0, 0xFF, 
  0x3F, 0x00, 0x08, 0x6A, 0x60, 0x02, 0x02, 0x88, 0x28, 0x02, 0x00, 0xC0, 
  0xFF, 0xFF, 0xFF, 0xFF, 0xFF, 0x3F, 0x00, 0x00, 0x00, 0x00, 0x00, 0x00, 
  0xFF, 0xFF, 0x03, 0x00, 0xF0, 0xFF, 0x3F, 0x00, 0x41, 0x00, 0x04, 0x00, 
  0x00, 0x24, 0x00, 0x00, 0x00, 0xC0, 0xFF, 0xFF, 0xFF, 0xFF, 0xFF, 0x3F, 
  0x00, 0x00, 0x00, 0x00, 0x00, 0x00, 0xFE, 0xFF, 0x03, 0x00, 0xE0, 0xFF, 
  0x3F, 0x00, 0x00, 0x24, 0x00, 0x24, 0x64, 0x01, 0x64, 0x92, 0x00, 0xC0, 
  0xFF, 0xFF, 0xFF, 0xFF, 0xFF, 0x3F, 0x00, 0x00, 0x00, 0x00, 0x00, 0x00, 
  0xFE, 0xFF, 0x01, 0x00, 0xE0, 0xFF, 0x1F, 0x00, 0x68, 0x80, 0xA6, 0x01, 
  0x40, 0x54, 0x46, 0x06, 0x00, 0x80, 0xFF, 0xFF, 0xEF, 0xFF, 0xFF, 0x7F, 
  0x00, 0x00, 0x00, 0x00, 0x00, 0x00, 0xFE, 0xFF, 0x01, 0x00, 0xE0, 0xFF, 
  0x1F, 0x00, 0x22, 0x29, 0x02, 0x04, 0x02, 0x00, 0x00, 0x40, 0x00, 0x80, 
  0xFF, 0xFF, 0xFF, 0xFF, 0xFF, 0x3F, 0x00, 0x00, 0x00, 0x00, 0x00, 0x00, 
  0xFC, 0xFF, 0x00, 0x00, 0xC0, 0xFF, 0x0F, 0x00, 0x00, 0x00, 0x40, 0x00, 
  0x00, 0x22, 0x44, 0x44, 0x00, 0x80, 0xFF, 0xFF, 0xFF, 0xFF, 0xFF, 0x3F, 
  0x00, 0x00, 0x00, 0x00, 0x00, 0x00, 0xF8, 0x7F, 0x00, 0x00, 0x80, 0xFF, 
  0x07, 0x00, 0x00, 0x42, 0x00, 0x00, 0x64, 0x08, 0x00, 0x11, 0x00, 0x00, 
  0xFF, 0xFF, 0xFF, 0xFF, 0xFF, 0x1F, 0x00, 0x00, 0x00, 0x00, 0x00, 0x00, 
  0xF0, 0x3F, 0x00, 0x1E, 0x00, 0xFF, 0x07, 0x00, 0x22, 0x10, 0x66, 0x12, 
  0x20, 0x90, 0x1A, 0x04, 0x00, 0x00, 0xFF, 0xFF, 0xFF, 0xFF, 0xFF, 0x0F, 
  0x00, 0x00, 0x00, 0x00, 0x00, 0x00, 0xC0, 0x1F, 0x80, 0x7F, 0x00, 0xFC, 
  0x00, 0x00, 0x6A, 0x09, 0x42, 0x08, 0x00, 0x01, 0x40, 0x40, 0x00, 0x00, 
  0xFC, 0xFF, 0xFF, 0xFF, 0xFF, 0x03, 0x00, 0x00, 0x00, 0x00, 0x00, 0x00, 
  0x00, 0x00, 0xE0, 0xFF, 0x01, 0x00, 0x00, 0x00, 0x00, 0x80, 0x00, 0x02, 
  0x44, 0x48, 0x22, 0x11, 0x00, 0x00, 0x00, 0x80, 0xFF, 0x1F, 0x04, 0x04, 
  0x00, 0x00, 0x00, 0x00, 0x00, 0x00, 0x00, 0x00, 0xE0, 0xFF, 0x03, 0x00, 
  0x00, 0x00, 0x82, 0x24, 0x44, 0x24, 0x10, 0x00, 0x80, 0x88, 0x00, 0x00, 
  0x00, 0x80, 0xFF, 0x1F, 0x00, 0x00, 0x00, 0x00, 0x00, 0x00, 0x00, 0x00, 
  0x00, 0x00, 0xF0, 0xFF, 0x07, 0x00, 0x00, 0x00, 0x10, 0x00, 0x11, 0x01, 
  0x00, 0x01, 0x01, 0x00, 0x00, 0x00, 0x00, 0x80, 0xF7, 0x1F, 0x00, 0x00, 
  0x00, 0x00, 0x00, 0x00, 0x00, 0x00, 0x00, 0x00, 0xF8, 0xFF, 0x07, 0x00, 
  0x00, 0x80, 0x05, 0x00, 0x00, 0x00, 0x84, 0x98, 0x28, 0x11, 0x00, 0x00, 
  0x00, 0x00, 0xFF, 0x1F, 0x00, 0x00, 0x00, 0x00, 0x00, 0x00, 0x00, 0x00, 
  0x00, 0x00, 0xF8, 0xFF, 0x07, 0x00, 0x00, 0x00, 0x20, 0x99, 0x84, 0x04, 
  0x20, 0x88, 0x82, 0x88, 0x00, 0x00, 0x00, 0x00, 0xFF, 0x1F, 0x00, 0x00, 
  0x00, 0x00, 0x00, 0x00, 0x00, 0x00, 0x00, 0x00, 0xFC, 0xFF, 0x0F, 0x00, 
  0x00, 0x00, 0x84, 0x10, 0x20, 0x09, 0x00, 0x01, 0x10, 0x10, 0x04, 0x00, 
  0x00, 0x80, 0xFF, 0x1F, 0x00, 0x00, 0x00, 0x00, 0x00, 0x00, 0x00, 0x00, 
  0x00, 0x00, 0xF8, 0xFF, 0x0F, 0x00, 0x00, 0x00, 0x01, 0x00, 0x09, 0x00, 
  0x00, 0x00, 0x00, 0x00, 0x01, 0x00, 0x00, 0x00, 0xFF, 0x1F, 0x00, 0x00, 
  0x00, 0x00, 0x00, 0x00, 0x00, 0x00, 0x00, 0x00, 0xF8, 0xFF, 0x0F, 0x00, 
  0x00, 0x00, 0x10, 0x00, 0x00, 0x00, 0x90, 0x88, 0x89, 0x28, 0x00, 0x00, 
  0x00, 0x80, 0xFF, 0x1F, 0x00, 0x00, 0x00, 0x00, 0x00, 0x00, 0x00, 0x00, 
  0x00, 0x00, 0xFC, 0xFF, 0x0F, 0x00, 0x00, 0x40, 0x44, 0x99, 0x92, 0x00, 
  0x80, 0x40, 0x48, 0x40, 0x08, 0x00, 0x00, 0x00, 0xFF, 0x1F, 0x00, 0x00, 
  0x00, 0x00, 0x00, 0x00, 0x00, 0x00, 0x00, 0x00, 0xFC, 0xFF, 0x0F, 0x00, 
  0x00, 0x00, 0x02, 0x00, 0x02, 0x09, 0x00, 0x1A, 0x00, 0x1A, 0x01, 0x00, 
  0x00, 0x00, 0xFF, 0x1F, 0x00, 0x00, 0x00, 0x00, 0x00, 0x00, 0x00, 0x00, 
  0x00, 0x00, 0xFC, 0xFF, 0x0F, 0x00, 0x00, 0x40, 0x20, 0x44, 0x68, 0x00, 
  0x00, 0x00, 0x81, 0x00, 0x00, 0x00, 0x00, 0x00, 0xFF, 0x1F, 0x00, 0x00, 
  0x00, 0x08, 0x00, 0x00, 0x00, 0x00, 0x00, 0x00, 0xF8, 0xFF, 0x0F, 0x00, 
  0x00, 0x00, 0x88, 0x16, 0x22, 0x00, 0x40, 0x44, 0x14, 0x44, 0x00, 0x00, 
  0x00, 0x00, 0xFF, 0x1F, 0x00, 0x00, 0x00, 0x00, 0x00, 0x02, 0x00, 0x00, 
  0x00, 0x00, 0xF8, 0xFF, 0x07, 0x00, 0x00, 0x10, 0x22, 0x40, 0x00, 0x02, 
  0x10, 0x00, 0x49, 0x00, 0x00, 0x00, 0x00, 0x00, 0xFF, 0x1F, 0x00, 0x00, 
  0x00, 0x00, 0x48, 0x04, 0x48, 0x00, 0x00, 0x00, 0xF0, 0xFF, 0x07, 0x00, 
  0x00, 0x80, 0x02, 0x40, 0x00, 0x08, 0x80, 0x2A, 0x00, 0x2A, 0x15, 0x00, 
  0x00, 0x00, 0xFF, 0x0F, 0x00, 0x00, 0x00, 0x21, 0x00, 0x10, 0x00, 0x00, 
  0x00, 0x00, 0xF0, 0xFF, 0x03, 0x00, 0x00, 0x04, 0x60, 0x02, 0x62, 0x01, 
  0x00, 0x60, 0x00, 0x60, 0x00, 0x00, 0x00, 0x00, 0xFE, 0x0F, 0x00, 0x00, 
  0x00, 0x00, 0x02, 0x40, 0x02, 0x00, 0x00, 0x00, 0xE0, 0xFF, 0x01, 0x00, 
  0x00, 0x10, 0x49, 0x96, 0x26, 0x00, 0x40, 0x04, 0x90, 0x04, 0x02, 0x00, 
  0x00, 0x00, 0xFE, 0x07, 0x00, 0x00, 0x00, 0x08, 0x20, 0x04, 0x20, 0x00, 
  0x00, 0x00, 0xC0, 0xFF, 0x01, 0x00, 0x80, 0x80, 0x00, 0x00, 0x00, 0x00, 
  0x00, 0x00, 0x49, 0x00, 0x20, 0x01, 0x00, 0x00, 0xF8, 0x03, 0x00, 0x00, 
  0x00, 0x88, 0x00, 0x11, 0x00, 0x01, 0x00, 0x00, 0x00, 0x3E, 0x00, 0x00, 
  0x00, 0x40, 0x48, 0x22, 0x82, 0x04, 0x00, 0x49, 0x00, 0x49, 0x06, 0x00, 
  0x00, 0x00, 0x80, 0x00, 0x00, 0x00, 0x40, 0x00, 0x08, 0x00, 0x08, 0x00, 
  0x00, 0x00, 0x00, 0x00, 0x00, 0x00, 0x00, 0x14, 0x00, 0x80, 0x10, 0x00, 
  0x80, 0x60, 0x90, 0x60, 0x02, 0x04, 0x00, 0x00, 0x10, 0x00, 0x00, 0x00, 
  0x00, 0xA0, 0x60, 0x06, 0x60, 0x24, 0x00, 0x00, 0x00, 0x00, 0x00, 0x00, 
  0x00, 0x00, 0x01, 0x01, 0x05, 0x00, 0x00, 0x02, 0x08, 0x02, 0x40, 0x00, 
  0x00, 0x00, 0x00, 0x00, 0x00, 0x00, 0x20, 0x04, 0x02, 0x40, 0x02, 0x00, 
  0x00, 0x00, 0x00, 0x00, 0x00, 0x00, 0x00, 0x89, 0x94, 0x28, 0x20, 0x00, 
  0x00, 0x02, 0x11, 0x02, 0x14, 0x20, 0x00, 0x00, 0x00, 0x00, 0x00, 0x00, 
  0x20, 0x22, 0x22, 0x40, 0x22, 0x01, 0x00, 0x00, 0x00, 0x00, 0x00, 0x00, 
  0x00, 0x28, 0x49, 0x82, 0x44, 0x00, 0x00, 0xA8, 0x00, 0x68, 0x80, 0x01, 
  0x00, 0x00, 0x00, 0x00, 0x00, 0x00, 0x40, 0x88, 0x88, 0x15, 0x88, 0x48, 
  0x00, 0x00, 0x00, 0x00, 0x00, 0x00, 0x28, 0x00, 0x00, 0x10, 0x11, 0x00, 
  0x00, 0x22, 0x88, 0x22, 0x01, 0x04, 0x00, 0x00, 0x00, 0x00, 0x00, 0x00, 
  0x24, 0x00, 0x20, 0x44, 0x20, 0x10, 0x00, 0x00, 0x00, 0x00, 0x00, 0x00, 
  0x00, 0x00, 0x00, 0x00, 0x04, 0x00, 0x00, 0x00, 0x21, 0x00, 0x24, 0x00, 
  0x00, 0x00, 0x00, 0x00, 0x00, 0x80, 0x00, 0x22, 0x02, 0x00, 0x02, 0x01, 
  0x00, 0x00, 0x00, 0x00, 0x00, 0x00, 0x88, 0x98, 0x90, 0x89, 0x40, 0x00, 
  0x00, 0x44, 0x00, 0x44, 0x02, 0x00, 0x08, 0x00, 0x00, 0x00, 0x00, 0x08, 
  0x20, 0x00, 0x21, 0x00, 0x44, 0x19, 0x10, 0x00, 0x00, 0x00, 0x00, 0x40, 
  0x44, 0x14, 0x91, 0x09, 0x22, 0x00, 0x00, 0x11, 0x44, 0x10, 0x68, 0x84, 
  0x00, 0x00, 0x00, 0x00, 0x00, 0x00, 0x88, 0x22, 0x88, 0x22, 0x10, 0x00, 
  0x01, 0x00, 0x00, 0x00, 0x00, 0x00, 0x00, 0x00, 0x00, 0x00, 0x00, 0x00, 
  0x00, 0x00, 0x66, 0x01, 0x22, 0x0A, 0x11, 0x00, 0x00, 0x00, 0x00, 0x40, 
  0x01, 0x68, 0x00, 0x68, 0x01, 0x40, 0x04, 0x00, 0x00, 0x00, 0x00, 0x00, 
  0x10, 0x08, 0x00, 0x00, 0x08, 0x00, 0x00, 0x84, 0x00, 0x84, 0x00, 0x10, 
  0x00, 0x00, 0x00, 0x00, 0x00, 0x04, 0x10, 0x02, 0x11, 0x02, 0x44, 0x10, 
  0x80, 0x00, 0x00, 0x00, 0x00, 0x20, 0x44, 0x11, 0x49, 0x92, 0x22, 0x00, 
  0x00, 0x20, 0x40, 0x20, 0x00, 0x44, 0x00, 0x08, 0x00, 0x00, 0x84, 0x02, 
  0x00, 0x02, 0x04, 0x02, 0x20, 0x49, 0x00, 0x00, 0x00, 0x00, 0x40, 0x80, 
  0x40, 0x88, 0x14, 0x29, 0x44, 0x00, 0x00, 0x08, 0x02, 0x09, 0x22, 0x00, 
  0x48, 0x00, 0x80, 0x40, 0x00, 0x80, 0x96, 0x60, 0x90, 0x40, 0x05, 0x00, 
  0x02, 0x14, 0x00, 0x00, 0x04, 0x08, 0x04, 0x00, 0x81, 0x80, 0x00, 0x00, 
  0x00, 0x00, 0xA6, 0x00, 0x66, 0x19, 0x00, 0x02, 0x01, 0x10, 0x20, 0x10, 
  0x02, 0x49, 0x00, 0x65, 0x10, 0x60, 0x29, 0x80, 0x05, 0x44, 0x00, 0x01, 
  0x1A, 0x11, 0x00, 0x00, 0x08, 0x00, 0x00, 0x90, 0x00, 0x92, 0x00, 0x80, 
  0x11, 0x20, 0x00, 0x00, 0x01, 0x04, 0x40, 0x00, 0x49, 0x00, 0x82, 0x04, 
  0x00, 0x01, 0x00, 0x00, 0x10, 0x40, 0x40, 0x84, 0x44, 0x12, 0x01, 0x00, 
  0x00, 0x00, 0x24, 0x11, 0x82, 0x24, 0x84, 0x40, 0x02, 0x02, 0x00, 0x92, 
  0x20, 0x04, 0x90, 0x04, 0x00, 0x24, 0x48, 0x20, 0x14, 0x12, 0x22, 0x90, 
  0x22, 0x21, 0x00, 0x00, 0x08, 0x00, 0x00, 0x00, 0x01, 0x00, 0x10, 0x00, 
  0x10, 0x08, 0x90, 0x20, 0x44, 0x00, 0x06, 0x60, 0x00, 0x60, 0x6A, 0x80, 
  0x00, 0x02, 0x00, 0x00, 0x00, 0x00, 0x00, 0x88, 0x49, 0x92, 0x00, 0x00, 
  0x00, 0x00, 0x54, 0x00, 0x05, 0x00, 0x01, 0x20, 0x04, 0x00, 0x00, 0x05, 
  0x64, 0x2A, 0x00, 0x2A, 0x22, 0x29, 0x01, 0x40, 0x42, 0x80, 0x00, 0x01, 
  0x81, 0x00, 0x60, 0x06, 0x01, 0x00, 0x00, 0x90, 0x00, 0x91, 0x20, 0x99, 
  0x04, 0x01, 0x00, 0x04, 0x11, 0x20, 0x00, 0x00, 0x49, 0x00, 0x00, 0x00, 
  0x94, 0x04, 0x00, 0x04, 0x44, 0x84, 0x28, 0x11, 0x02, 0x40, 0x08, 0x00, 
  0x00, 0x00, 0x22, 0x29, 0x44, 0x08, 0x80, 0x22, 0x12, 0x80, 0x88, 0x84, 
  0x22, 0x44, 0x94, 0x44, 0x00, 0x42, 0x88, 0x00, 0x08, 0x08, 0x20, 0x98, 
  0x92, 0x08, 0x02, 0x44, 0x00, 0x00, 0x00, 0x80, 0x08, 0x80, 0x11, 0x00, 
  0x15, 0x00, 0x00, 0x11, 0x00, 0x01, 0x00, 0x00, 0x01, 0x00, 0x22, 0x10, 
  0x01, 0x44, 0x01, 0x01, 0x09, 0x01, 0x00, 0x90, 0x68, 0x11, 0x00, 0x00, 
  0x00, 0x00, 0x90, 0x00, 0x00, 0x01, 0x00, 0x98, 0x80, 0x06, 0x11, 0x10, 
  0x58, 0x1A, 0x00, 0x19, 0x6A, 0x09, 0x00, 0x16, 0x00, 0x04, 0x10, 0x00, 
  0x00, 0x00, 0x22, 0x44, 0x02, 0x00, 0x00, 0x00, 0x01, 0x12, 0x44, 0x98, 
  0x22, 0x02, 0x11, 0x20, 0x84, 0x44, 0x02, 0x40, 0x48, 0x40, 0x00, 0x80, 
  0x88, 0x40, 0x94, 0x90, 0x82, 0x48, 0x09, 0x29, 0x00, 0x00, 0x00, 0x00, 
  0x00, 0x00, 0x00, 0x82, 0x98, 0x22, 0x00, 0x24, 0x00, 0x00, 0x00, 0x84, 
  0x94, 0x90, 0x88, 0x28, 0x82, 0x88, 0x11, 0x41, 0x19, 0x02, 0x00, 0x24, 
  0x04, 0x00, 0x44, 0x19, 0x00, 0x00, 0x00, 0x00, 0x64, 0x10, 0x01, 0x08, 
  0x66, 0x01, 0x64, 0x92, 0x44, 0x11, 0x00, 0x00, 0x01, 0x00, 0x10, 0x00, 
  0x00, 0x08, 0x80, 0x20, 0x65, 0x01, 0x60, 0x92, 0x10, 0x80, 0x00, 0x00, 
  0x00, 0x00, 0x46, 0x06, 0x00, 0x80, 0x00, 0x94, 0x46, 0x06, 0x16, 0x00, 
  0x09, 0x00, 0x10, 0x10, 0x05, 0x01, 0x80, 0xA0, 0x00, 0x88, 0x40, 0x54, 
  0x2A, 0x06, 0x01, 0x00, 0x00, 0x00, 0x00, 0x00, 0x00, 0x20, 0x08, 0x21, 
  0x42, 0x00, 0x00, 0x40, 0x40, 0x88, 0x10, 0x49, 0x82, 0x88, 0x20, 0x88, 
  0x11, 0x04, 0x10, 0x22, 0x02, 0x00, 0x00, 0x40, 0x84, 0x10, 0x00, 0x00, 
  0x00, 0x00, 0x90, 0x44, 0x99, 0x04, 0x00, 0x42, 0x44, 0x44, 0x40, 0x10, 
  0x88, 0x14, 0x28, 0x11, 0x84, 0x98, 0x19, 0x21, 0x99, 0x04, 0x00, 0x22, 
  0x44, 0x40, 0x20, 0x09, 0x00, 0x00, 0x00, 0x00, 0x00, 0x11, 0x00, 0xA0, 
  0x66, 0x08, 0x00, 0x11, 0x06, 0x09, 0x00, 0x81, 0x01, 0x00, 0x01, 0x01, 
  0x80, 0x80, 0x00, 0xA0, 0x6A, 0x08, 0x00, 0x16, 0x09, 0x00, 0x00, 0x00, 
  0x00, 0x00, 0x00, 0x04, 0x00, 0x08, 0x42, 0x80, 0x1A, 0x04, 0x92, 0x00, 
  0x11, 0x00, 0x80, 0x80, 0x10, 0x00, 0x00, 0x08, 0x00, 0x08, 0x22, 0x90, 
  0x1A, 0x44, 0x00, 0x00, 0x00, 0x00, 0x00, 0x00, 0x10, 0x40, 0x24, 0x41, 
  0x00, 0x11, 0x40, 0x40, 0x00, 0x94, 0x84, 0x44, 0x22, 0x19, 0x44, 0x88, 
  0x12, 0x22, 0x24, 0x41, 0x00, 0x01, 0x40, 0x00, 0x92, 0x04, 0x00, 0x00, 
  0x00, 0x00, 0x80, 0x00, 0x01, 0x40, 0x44, 0x88, 0x22, 0x11, 0x20, 0x09, 
  0x00, 0x02, 0x40, 0x40, 0x00, 0x01, 0x80, 0x00, 0x11, 0x00, 0x44, 0x48, 
  0x12, 0x21, 0x02, 0x01, 0x00, 0x00, 0x00, 0x00, 0x00, 0x42, 0x90, 0x16, 
  0x10, 0x00, 0x80, 0x88, 0x06, 0x00, 0x22, 0x58, 0x1A, 0x04, 0x42, 0x90, 
  0x09, 0x42, 0x80, 0x64, 0x10, 0x00, 0x00, 0x88, 0x68, 0x00, 0x00, 0x00, 
  0x00, 0x00, 0x00, 0x66, 0x08, 0x44, 0x01, 0x01, 0x01, 0x00, 0x54, 0x00, 
  0xA8, 0x00, 0x40, 0x11, 0x66, 0x08, 0x10, 0x66, 0x08, 0x46, 0x01, 0x01, 
  0x81, 0x00, 0x22, 0x00, 0x00, 0x00, 0x00, 0x00, 0x80, 0x00, 0x22, 0x00, 
  0x44, 0x88, 0x28, 0x11, 0x00, 0x92, 0x02, 0x22, 0x04, 0x44, 0x00, 0x42, 
  0x44, 0x00, 0x41, 0x00, 0x84, 0x94, 0x28, 0x11, 0x00, 0x00, 0x00, 0x00, 
  0x00, 0x00, 0x00, 0x02, 0x00, 0x00, 0x20, 0x98, 0x82, 0x88, 0x22, 0x28, 
  0x02, 0x00, 0x00, 0x20, 0x02, 0x00, 0x00, 0x40, 0x04, 0x00, 0x20, 0x89, 
  0x92, 0x04, 0x02, 0x00, 0x00, 0x00, 0x00, 0x00, 0x00, 0x40, 0x94, 0x44, 
  0x05, 0x01, 0x10, 0x10, 0x00, 0x81, 0x60, 0x64, 0x46, 0x06, 0x40, 0x94, 
  0x29, 0x02, 0x90, 0x44, 0x09, 0x00, 0x00, 0x90, 0x60, 0x00, 0x00, 0x00, 
  0x00, 0x00, 0x00, 0x65, 0x01, 0x66, 0x10, 0x00, 0x00, 0x00, 0x58, 0x00, 
  0x49, 0x06, 0x64, 0x90, 0x65, 0x01, 0x80, 0xA6, 0x01, 0x16, 0x00, 0x00, 
  0x00, 0x00, 0x18, 0x00, 0x00, 0x00, 0x00, 0x00, 0x00, 0x00, 0x24, 0x00, 
  0x82, 0x88, 0x89, 0x28, 0x02, 0x12, 0x00, 0x20, 0x00, 0x02, 0x00, 0x24, 
  0x24, 0x00, 0x24, 0x40, 0x92, 0x88, 0x09, 0x49, 0x02, 0x00, 0x00, 0x00, 
  0x00, 0x00, 0x00, 0x00, 0x12, 0x41, 0x00, 0x04, 0x00, 0x04, 0x00, 0x44, 
  0x88, 0x28, 0x01, 0x12, 0x24, 0x40, 0x92, 0x88, 0x24, 0x00, 0x24, 0x00, 
  0x24, 0x88, 0x08, 0x00, 0x00, 0x00, 0x00, 0x00, 0x00, 0x90, 0x00, 0x08, 
  0x26, 0xA0, 0x26, 0x60, 0xA6, 0x01, 0x01, 0x00, 0x90, 0x00, 0x01, 0x16, 
  0x00, 0x00, 0x80, 0x65, 0x01, 0x66, 0x01, 0x01, 0x00, 0x00, 0x00, 0x00, 
  0x00, 0x00, 0x00, 0x00, 0x80, 0xA0, 0x62, 0x2A, 0x62, 0x2A, 0x02, 0x80, 
  0x10, 0x10, 0x08, 0x80, 0x94, 0x44, 0x09, 0x01, 0x09, 0x40, 0x94, 0x44, 
  0x94, 0x10, 0x00, 0x00, 0x00, 0x00, 0x00, 0x00, 0x00, 0x20, 0x29, 0x04, 
  0x00, 0x00, 0x00, 0x00, 0x40, 0x14, 0x82, 0x89, 0x22, 0x29, 0x00, 0x00, 
  0x20, 0x88, 0x20, 0x02, 0x00, 0x00, 0x00, 0x82, 0x08, 0x00, 0x00, 0x00, 
  0x00, 0x00, 0x00, 0x20, 0x11, 0x22, 0x00, 0x44, 0x20, 0x44, 0x40, 0x41, 
  0x20, 0x10, 0x00, 0x91, 0x42, 0x00, 0x84, 0x94, 0x82, 0x00, 0x22, 0x00, 
  0x42, 0x20, 0x01, 0x00, 0x00, 0x00, 0x00, 0x00, 0x00, 0x00, 0x80, 0x88, 
  0x22, 0x10, 0x02, 0x10, 0x16, 0x08, 0x09, 0x00, 0x54, 0x00, 0x08, 0x44, 
  0x01, 0x01, 0x10, 0x66, 0x08, 0x44, 0x08, 0x09, 0x00, 0x00, 0x00, 0x00, 
  0x00, 0x00, 0x00, 0x80, 0x00, 0x20, 0x68, 0x09, 0x68, 0x09, 0x44, 0x80, 
  0x80, 0x80, 0x05, 0x00, 0x80, 0x66, 0x10, 0x00, 0x01, 0x22, 0x90, 0x16, 
  0x90, 0x80, 0x00, 0x00, 0x00, 0x00, 0x00, 0x00, 0x00, 0x00, 0x11, 0x02, 
  0x02, 0x80, 0x02, 0x40, 0x00, 0x11, 0x24, 0x19, 0x20, 0x09, 0x11, 0x00, 
  0x44, 0x48, 0x88, 0x00, 0x01, 0x40, 0x01, 0x22, 0x01, 0x00, 0x00, 0x00, 
  0x00, 0x00, 0x00, 0x00, 0x88, 0x00, 0x92, 0x28, 0x92, 0x28, 0x40, 0x90, 
  0x40, 0x40, 0x00, 0x92, 0x24, 0x41, 0x00, 0x01, 0x11, 0x02, 0x24, 0x41, 
  0x24, 0x41, 0x00, 0x00, 0x00, 0x00, 0x00, 0x00, 0x00, 0x00, 0x00, 0x22, 
  0x00, 0x00, 0x00, 0x00, 0x04, 0x00, 0x16, 0x04, 0xA6, 0x00, 0x00, 0x08, 
  0x22, 0x90, 0x00, 0x20, 0x00, 0x08, 0x00, 0x08, 0x00, 0x00, 0x00, 0x00, 
  0x00, 0x00, 0x00, 0x00, 0x10, 0x88, 0x09, 0x10, 0x09, 0x10, 0x11, 0x00, 
  0x44, 0x11, 0x02, 0x09, 0x00, 0xA0, 0x66, 0x08, 0x80, 0x88, 0x00, 0xA0, 
  0x00, 0x00, 0x00, 0x00, 0x00, 0x00, 0x00, 0x00, 0x00, 0x00, 0x80, 0x22, 
  0x20, 0x89, 0x20, 0x88, 0x44, 0x49, 0x00, 0x44, 0x40, 0x20, 0x99, 0x04, 
  0x00, 0x22, 0x11, 0x22, 0x99, 0x04, 0x99, 0x04, 0x00, 0x00, 0x00, 0x00, 
  0x00, 0x00, 0x00, 0x00, 0x90, 0x02, 0x84, 0x10, 0x88, 0x11, 0x40, 0x94, 
  0x00, 0x20, 0x00, 0x84, 0x10, 0x22, 0x02, 0x00, 0x29, 0x04, 0x08, 0x21, 
  0x08, 0x01, 0x00, 0x00, 0x00, 0x00, 0x00, 0x00, 0x00, 0x00, 0x00, 0x60, 
  0x00, 0x00, 0x00, 0x00, 0x06, 0x01, 0x46, 0x05, 0x56, 0x00, 0x00, 0x88, 
  0x40, 0x54, 0x80, 0xA0, 0x00, 0x80, 0x00, 0x00, 0x00, 0x00, 0x00, 0x00, 
  0x00, 0x00, 0x00, 0x00, 0x00, 0x49, 0x11, 0x80, 0x11, 0x80, 0x92, 0x00, 
  0x64, 0x10, 0x44, 0x11, 0x80, 0x00, 0x65, 0x01, 0x00, 0x08, 0x01, 0x08, 
  0x00, 0x00, 0x00, 0x00, 0x00, 0x00, 0x00, 0x00, 0x00, 0x00, 0x00, 0x00, 
  0x44, 0x19, 0x44, 0x19, 0x00, 0x48, 0x00, 0x82, 0x00, 0x44, 0x19, 0x22, 
  0x00, 0x24, 0x12, 0x41, 0x98, 0x22, 0x99, 0x00, 0x00, 0x00, 0x00, 0x00, 
  0x00, 0x00, 0x00, 0x00, 0x00, 0x00, 0x00, 0x00, 0x84, 0x21, 0x00, 0x44, 
  0x88, 0x24, 0x22, 0x00, 0x40, 0x98, 0x92, 0x88, 0x22, 0x00, 0x21, 0x00, 
  0x08, 0x00, 0x00, 0x00, 0x00, 0x00, 0x00, 0x00, 0x00, 0x00, 0x00, 0x40, 
  0x22, 0x44, 0x11, 0x88, 0x96, 0x01, 0x01, 0x00, 0x08, 0x42, 0x04, 0x01, 
  0x00, 0x00, 0x80, 0x65, 0x88, 0x22, 0x01, 0x00, 0x00, 0x00, 0x00, 0x00, 
  0x00, 0x00, 0x00, 0x00, 0x00, 0x64, 0x88, 0x16, 0x00, 0x00, 0x02, 0x80, 
  0x10, 0x00, 0x80, 0x66, 0x11, 0x00, 0x09, 0x00, 0x09, 0x40, 0x00, 0xA8, 
  0x10, 0x00, 0x00, 0x00, 0x00, 0x00, 0x00, 0x00, 0x00, 0x00, 0x00, 0x00, 
  0x22, 0x40, 0x88, 0x11, 0x40, 0x14, 0x82, 0x99, 0x21, 0x00, 0x44, 0x88, 
  0x20, 0x89, 0x20, 0x02, 0x11, 0x02, 0x00, 0x00, 0x00, 0x00, 0x00, 0x00, 
  0x00, 0x00, 0x00, 0x00, 0x00, 0x00, 0x02, 0x40, 0x11, 0x08, 0x40, 0x41, 
  0x20, 0x10, 0x04, 0x02, 0x20, 0x11, 0x84, 0x94, 0x82, 0x00, 0x88, 0x02, 
  0x01, 0x00, 0x00, 0x00, 0x00, 0x00, 0x00, 0x00, 0x00, 0x00, 0x00, 0x00, 
  0x60, 0x06, 0x08, 0x90, 0x16, 0x08, 0x09, 0x00, 0xA0, 0x40, 0x06, 0x08, 
  0x00, 0x01, 0x10, 0x66, 0x10, 0x60, 0x00, 0x00, 0x00, 0x00, 0x00, 0x00, 
  0x00, 0x00, 0x00, 0x00, 0x00, 0x00, 0x49, 0x92, 0x00, 0x00, 0x44, 0x00, 
  0x80, 0x80, 0x08, 0x65, 0x90, 0x00, 0x11, 0x00, 0x01, 0x22, 0x00, 0x09, 
  0x00, 0x00, 0x00, 0x00, 0x00, 0x00, 0x00, 0x00, 0x00, 0x00, 0x00, 0x00, 
  0x00, 0x00, 0x14, 0x29, 0x00, 0x91, 0x24, 0x19, 0x41, 0x00, 0x02, 0x14, 
  0x44, 0x48, 0x88, 0x00, 0x28, 0x00, 0x00, 0x00, 0x00, 0x00, 0x00, 0x00, 
  0x00, 0x00, 0x00, 0x00, 0x00, 0x00, 0x80, 0x22, 0x02, 0x40, 0x00, 0x90, 
  0x40, 0x44, 0x88, 0x24, 0x00, 0x88, 0x00, 0x01, 0x11, 0x02, 0x91, 0x12, 
  0x00, 0x00, 0x00, 0x00, 0x00, 0x00, 0x00, 0x00, 0x00, 0x00, 0x00, 0x00, 
  0x00, 0x00, 0x58, 0x1A, 0x44, 0x00, 0x16, 0x00, 0x00, 0x80, 0x26, 0x01, 
  0x22, 0x90, 0x00, 0x20, 0x00, 0x00, 0x00, 0x00, 0x00, 0x00, 0x00, 0x00, 
  0x00, 0x00, 0x00, 0x00, 0x00, 0x00, 0x00, 0x81, 0x00, 0x00, 0x11, 0x00, 
  0x44, 0x11, 0x01, 0x29, 0x62, 0x10, 0x6A, 0x08, 0x00, 0x88, 0x00, 0x00, 
  0x00, 0x00, 0x00, 0x00, 0x00, 0x00, 0x00, 0x00, 0x00, 0x00, 0x00, 0x00, 
  0x80, 0x28, 0x22, 0x44, 0x44, 0x49, 0x00, 0x44, 0x88, 0x00, 0x00, 0x82, 
  0x00, 0x22, 0x91, 0x22, 0x49, 0x00, 0x00, 0x00, 0x00, 0x00, 0x00, 0x00, 
  0x00, 0x00, 0x00, 0x00, 0x00, 0x00, 0x00, 0x40, 0x00, 0x00, 0x40, 0x94, 
  0x00, 0x20, 0x98, 0x42, 0x20, 0x20, 0x02, 0x00, 0x29, 0x04, 0x10, 0x00, 
  0x00, 0x00, 0x00, 0x00, 0x00, 0x00, 0x00, 0x00, 0x00, 0x00, 0x00, 0x00, 
  0x00, 0x10, 0x64, 0x26, 0x06, 0x01, 0x44, 0x05, 0x01, 0x10, 0x02, 0x09, 
  0x40, 0x54, 0x80, 0x60, 0x02, 0x00, 0x00, 0x00, 0x00, 0x00, 0x00, 0x00, 
  0x00, 0x00, 0x00, 0x00, 0x00, 0x00, 0x00, 0x00, 0x06, 0x64, 0x92, 0x00, 
  0x66, 0x10, 0x00, 0x09, 0x58, 0x80, 0x65, 0x05, 0x00, 0x08, 0x02, 0x00, 
  0x00, 0x00, 0x00, 0x00, 0x00, 0x00, 0x00, 0x00, 0x00, 0x00, 0x00, 0x00, 
  0x00, 0x00, 0x20, 0x00, 0x00, 0x48, 0x00, 0x82, 0x48, 0x80, 0x02, 0x22, 
  0x00, 0x20, 0x12, 0x41, 0x00, 0x00, 0x00, 0x00, 0x00, 0x00, 0x00, 0x00, 
  0x00, 0x00, 0x00, 0x00, 0x00, 0x00, 0x00, 0x00, 0x20, 0x11, 0x40, 0x92, 
  0x28, 0x01, 0x80, 0x24, 0x92, 0x90, 0x22, 0x00, 0x82, 0x90, 0x00, 0x00, 
  0x00, 0x00, 0x00, 0x00, 0x00, 0x00, 0x00, 0x00, 0x00, 0x00, 0x00, 0x00, 
  0x00, 0x00, 0x02, 0x80, 0x16, 0x00, 0x00, 0x90, 0x09, 0x00, 0x00, 0x00, 
  0x80, 0x65, 0x10, 0x00, 0x00, 0x00, 0x00, 0x00, 0x00, 0x00, 0x00, 0x00, 
  0x00, 0x00, 0x00, 0x00, 0x00, 0x00, 0x00, 0x00, 0x04, 0x08, 0x44, 0x09, 
  0x10, 0x08, 0x10, 0x00, 0x09, 0x00, 0x01, 0x40, 0x06, 0x01, 0x00, 0x00, 
  0x00, 0x00, 0x00, 0x00, 0x00, 0x00, 0x00, 0x00, 0x00, 0x00, 0x00, 0x00, 
  0x00, 0x00, 0x10, 0x42, 0x00, 0x20, 0x89, 0x22, 0x42, 0x99, 0x20, 0x49, 
  0x28, 0x02, 0x20, 0x08, 0x00, 0x00, 0x00, 0x00, 0x00, 0x00, 0x00, 0x00, 
  0x00, 0x00, 0x00, 0x00, 0x00, 0x00, 0x00, 0x00, 0x00, 0x02, 0x00, 0x84, 
  0x10, 0x00, 0x00, 0x10, 0x88, 0x94, 0x82, 0x00, 0x20, 0x00, 0x00, 0x00, 
  0x00, 0x00, 0x00, 0x00, 0x00, 0x00, 0x00, 0x00, 0x00, 0x00, 0x00, 0x00, 
  0x00, 0x00, 0x00, 0x90, 0x46, 0x01, 0x00, 0x54, 0x29, 0x00, 0x00, 0x01, 
  0x10, 0x6A, 0x01, 0x00, 0x00, 0x00, 0x00, 0x00, 0x00, 0x00, 0x00, 0x00, 
  0x00, 0x00, 0x00, 0x00, 0x00, 0x00, 0x00, 0x00, 0x00, 0x00, 0x64, 0x10, 
  0x80, 0x01, 0x80, 0x00, 0x11, 0x00, 0x01, 0x22, 0x04, 0x00, 0x00, 0x00, 
  0x00, 0x00, 0x00, 0x00, 0x00, 0x00, 0x00, 0x00, 0x00, 0x00, 0x00, 0x00, 
  0x00, 0x00, 0x00, 0x20, 0x00, 0x44, 0x19, 0x24, 0x24, 0x99, 0x44, 0x48, 
  0x88, 0x00, 0x00, 0x00, 0x00, 0x00, 0x00, 0x00, 0x00, 0x00, 0x00, 0x00, 
  0x00, 0x00, 0x00, 0x00, 0x00, 0x00, 0x00, 0x00, 0x00, 0x00, 0x00, 0x44, 
  0x19, 0x00, 0x00, 0x00, 0x02, 0x02, 0x04, 0x00, 0x00, 0x00, 0x00, 0x00, 
  0x00, 0x00, 0x00, 0x00, 0x00, 0x00, 0x00, 0x00, 0x00, 0x00, 0x00, 0x00, 
  0x00, 0x00, 0x00, 0x00, 0x10, 0x10, 0x80, 0x26, 0x56, 0x42, 0x20, 0x98, 
  0x20, 0x01, 0x00, 0x00, 0x00, 0x00, 0x00, 0x00, 0x00, 0x00, 0x00, 0x00, 
  0x00, 0x00, 0x00, 0x00, 0x00, 0x00, 0x00, 0x00, 0x00, 0x00, 0x00, 0x01, 
  0x00, 0x62, 0x44, 0x66, 0x88, 0x00, 0x42, 0x00, 0x00, 0x00, 0x00, 0x00, 
  0x00, 0x00, 0x00, 0x00, 0x00, 0x00, 0x00, 0x00, 0x00, 0x00, 0x00, 0x00, 
  0x00, 0x00, 0x00, 0x00, 0x00, 0x04, 0x10, 0x00, 0x00, 0x00, 0x22, 0x22, 
  0x00, 0x00, 0x00, 0x00, 0x00, 0x00, 0x00, 0x00, 0x00, 0x00, 0x00, 0x00, 
  0x00, 0x00, 0x00, 0x00, 0x00, 0x00, 0x00, 0x00, 0x00, 0x00, 0x00, 0x00, 
  0x81, 0x22, 0x90, 0x02, 0x04, 0x20, 0x00, 0x00, 0x00, 0x00, 0x00, 0x00, 
  0x00, 0x00, 0x00, 0x00, 0x00, 0x00, 0x00, 0x00, 0x00, 0x00, 0x00, 0x00, 
  0x00, 0x00, 0x00, 0x00, 0x00, 0x00, 0x00, 0x00, 0x04, 0x40, 0x40, 0x01, 
  0x00, 0x00, 0x00, 0x00, 0x00, 0x00, 0x00, 0x00, 0x00, 0x00, 0x00, 0x00, 
  0x00, 0x00, 0x00, 0x00, 0x00, 0x00, 0x00, 0x00, 0x00, 0x00, 0x00, 0x00, 
  0x00, 0x40, 0x02, 0x04, 0x08, 0x00, 0x00, 0x00, 0x00, 0x00, 0x00, 0x00, 
  0x00, 0x00, 0x00, 0x00, 0x00, 0x00, 0x00, 0x00, 0x00, 0x00, 0x00, 0x00, 
  0x00, 0x00, 0x00, 0x00, 0x00, 0x00, 0x00, 0x00, 0x00, 0x00, 0x00, 0x00, 
  0x00, 0x00, 0x00, 0x00, 0x00, 0x00, 0x00, 0x00, 0x00, 0x00, 0x00, 0x00, 
  };
